<svg width="35" height="46" viewBox="0 0 35 46" fill="none" xmlns="http://www.w3.org/2000/svg">
<g id="a" clip-path="url(#clip0_1207_3051)">
<path id="Vector" d="M31.8177 17.6232C33.0471 16.1425 33.8094 14.4675 34.0553 12.7441C34.0553 12.2586 33.6373 11.5061 32.9488 11.5061C32.9488 13.3995 32.2357 15.2443 30.8833 16.8707C28.7687 19.4195 25.3017 21.2401 21.3183 22.0169L17.7284 15.3414L25.8427 0.339842C25.2525 0.0242744 24.5395 0.242744 24.2198 0.82533L17.6546 13.0111V0H16.4744V12.9868L9.90922 0.82533C9.58957 0.242744 8.8765 0.0242744 8.28637 0.339842L16.376 15.3657L12.7861 22.0412C8.80273 21.2644 5.33573 19.4438 3.22111 16.895L2.28674 17.6475C4.49972 20.3177 8.08966 22.2596 12.196 23.1335L0 45.7815C0.590127 46.0971 1.3032 45.8786 1.62285 45.296L13.45 23.3277C14.4335 23.4734 15.4417 23.5704 16.4744 23.5947V46H17.6546V23.5947C18.6874 23.5704 19.6955 23.4734 20.679 23.3277L32.5062 45.296C32.8258 45.8786 33.5389 46.0971 34.129 45.7815L21.9085 23.1092C26.0148 22.2354 29.6047 20.2934 31.7931 17.6232H31.8177ZM14.0401 22.2354L16.4744 17.7203V22.4296C15.663 22.4296 14.8515 22.3325 14.0401 22.2354ZM17.6546 22.4296V17.7203L20.0889 22.2354C19.3021 22.3325 18.4907 22.4053 17.6546 22.4296Z" fill="white"/>
</g>
<defs>
<clipPath id="clip0_1207_3051">
<rect width="34.129" height="46" fill="white"/>
</clipPath>
</defs>
</svg>
