<svg width="40" height="40" viewBox="0 0 40 40" fill="none" xmlns="http://www.w3.org/2000/svg">
<g id="event_24dp_E8EAED_FILL0_wght100_GRAD0_opsz24 1">
<path id="Vector" d="M25 30C24.0833 30 23.2986 29.6736 22.6458 29.0208C21.993 28.3681 21.6666 27.5833 21.6666 26.6667C21.6666 25.75 21.993 24.9653 22.6458 24.3125C23.2986 23.6597 24.0833 23.3333 25 23.3333C25.9166 23.3333 26.7013 23.6597 27.3541 24.3125C28.0069 24.9653 28.3333 25.75 28.3333 26.6667C28.3333 27.5833 28.0069 28.3681 27.3541 29.0208C26.7013 29.6736 25.9166 30 25 30ZM9.66663 34.5C8.9444 34.5 8.34718 34.2639 7.87496 33.7917C7.40274 33.3194 7.16663 32.7222 7.16663 32V11.3333C7.16663 10.6111 7.40274 10.0139 7.87496 9.54167C8.34718 9.06945 8.9444 8.83333 9.66663 8.83333H13V5H14.3333V8.83333H25.8333V5H27V8.83333H30.3333C31.0555 8.83333 31.6527 9.06945 32.125 9.54167C32.5972 10.0139 32.8333 10.6111 32.8333 11.3333V32C32.8333 32.7222 32.5972 33.3194 32.125 33.7917C31.6527 34.2639 31.0555 34.5 30.3333 34.5H9.66663ZM9.66663 33.3333H30.3333C30.6666 33.3333 30.9722 33.1944 31.25 32.9167C31.5277 32.6389 31.6666 32.3333 31.6666 32V18H8.33329V32C8.33329 32.3333 8.47218 32.6389 8.74996 32.9167C9.02774 33.1944 9.33329 33.3333 9.66663 33.3333ZM8.33329 16.8333H31.6666V11.3333C31.6666 11 31.5277 10.6944 31.25 10.4167C30.9722 10.1389 30.6666 10 30.3333 10H9.66663C9.33329 10 9.02774 10.1389 8.74996 10.4167C8.47218 10.6944 8.33329 11 8.33329 11.3333V16.8333Z" fill="url(#paint0_linear_1207_2858)"/>
</g>
<defs>
<linearGradient id="paint0_linear_1207_2858" x1="7.16663" y1="19.75" x2="32.8333" y2="19.75" gradientUnits="userSpaceOnUse">
<stop stop-color="#FF4747"/>
<stop offset="1" stop-color="#FFE27B"/>
</linearGradient>
</defs>
</svg>
