<svg width="40" height="40" viewBox="0 0 40 40" fill="none" xmlns="http://www.w3.org/2000/svg">
<g id="groups_24dp_E8EAED_FILL0_wght100_GRAD0_opsz24 1">
<path id="Vector" d="M2.16663 29.0833V28C2.16663 27.0277 2.6944 26.2152 3.74996 25.5625C4.80552 24.9097 6.15274 24.5833 7.79163 24.5833C8.01385 24.5833 8.26385 24.5972 8.54163 24.625C8.8194 24.6527 9.12496 24.6944 9.45829 24.75C9.23607 25.1666 9.07635 25.5902 8.97913 26.0208C8.8819 26.4513 8.83329 26.875 8.83329 27.2916V29.0833H2.16663ZM12.1666 29.0833V27.4583C12.1666 26.8516 12.3472 26.2972 12.7083 25.795C13.0694 25.2927 13.6111 24.8611 14.3333 24.5C15.0555 24.1388 15.8888 23.868 16.8333 23.6875C17.7777 23.5069 18.8277 23.4166 19.9833 23.4166C21.1611 23.4166 22.2222 23.5069 23.1666 23.6875C24.1111 23.868 24.9444 24.1388 25.6666 24.5C26.3888 24.8611 26.9305 25.2927 27.2916 25.795C27.6527 26.2972 27.8333 26.8516 27.8333 27.4583V29.0833H12.1666ZM31.1666 29.0833V27.3041C31.1666 26.8297 31.118 26.3826 31.0208 25.9629C30.9236 25.5432 30.7777 25.1388 30.5833 24.75C30.9444 24.6944 31.2569 24.6527 31.5208 24.625C31.7847 24.5972 32.0277 24.5833 32.25 24.5833C33.8888 24.5833 35.2291 24.9097 36.2708 25.5625C37.3125 26.2152 37.8333 27.0277 37.8333 28V29.0833H31.1666ZM13.3333 27.9166H26.6666V27.4583C26.6666 26.5972 26.0555 25.9027 24.8333 25.375C23.6111 24.8472 22 24.5833 20 24.5833C18 24.5833 16.3888 24.8472 15.1666 25.375C13.9444 25.9027 13.3333 26.5972 13.3333 27.4583V27.9166ZM7.78038 23.0416C7.20454 23.0416 6.71524 22.8376 6.31246 22.4295C5.90968 22.0215 5.70829 21.5311 5.70829 20.9583C5.70829 20.4027 5.91232 19.9236 6.32038 19.5208C6.72843 19.118 7.21885 18.9166 7.79163 18.9166C8.34718 18.9166 8.83329 19.118 9.24996 19.5208C9.66663 19.9236 9.87496 20.4069 9.87496 20.9708C9.87496 21.518 9.67427 22 9.27288 22.4166C8.87149 22.8333 8.37399 23.0416 7.78038 23.0416ZM32.25 23.0416C31.6944 23.0416 31.2083 22.8333 30.7916 22.4166C30.375 22 30.1666 21.518 30.1666 20.9708C30.1666 20.4069 30.375 19.9236 30.7916 19.5208C31.2083 19.118 31.697 18.9166 32.2579 18.9166C32.8359 18.9166 33.3263 19.118 33.7291 19.5208C34.1319 19.9236 34.3333 20.4027 34.3333 20.9583C34.3333 21.5311 34.1337 22.0215 33.7345 22.4295C33.3351 22.8376 32.8402 23.0416 32.25 23.0416ZM20.0145 22.1666C19.1159 22.1666 18.3472 21.8507 17.7083 21.2187C17.0694 20.5868 16.75 19.8194 16.75 18.9166C16.75 17.9958 17.0659 17.2238 17.6979 16.6008C18.3298 15.978 19.0972 15.6666 20 15.6666C20.9208 15.6666 21.6927 15.9766 22.3158 16.5966C22.9386 17.2169 23.25 17.9854 23.25 18.902C23.25 19.8007 22.94 20.5694 22.32 21.2083C21.6997 21.8472 20.9312 22.1666 20.0145 22.1666ZM20.0208 21C20.5902 21 21.0763 20.7916 21.4791 20.375C21.8819 19.9583 22.0833 19.4652 22.0833 18.8958C22.0833 18.3263 21.8837 17.8402 21.4845 17.4375C21.0851 17.0347 20.5902 16.8333 20 16.8333C19.4444 16.8333 18.9583 17.0329 18.5416 17.432C18.125 17.8315 17.9166 18.3263 17.9166 18.9166C17.9166 19.4722 18.125 19.9583 18.5416 20.375C18.9583 20.7916 19.4513 21 20.0208 21Z" fill="url(#paint0_linear_1207_2860)"/>
</g>
<defs>
<linearGradient id="paint0_linear_1207_2860" x1="2.16663" y1="22.375" x2="37.8333" y2="22.375" gradientUnits="userSpaceOnUse">
<stop stop-color="#FF4747"/>
<stop offset="1" stop-color="#FFE27B"/>
</linearGradient>
</defs>
</svg>
