<svg width="40" height="40" viewBox="0 0 40 40" fill="none" xmlns="http://www.w3.org/2000/svg">
<g id="live_tv_24dp_E8EAED_FILL0_wght100_GRAD0_opsz24 1">
<path id="Vector" d="M16.9167 23.8333L25.5 18.3333L16.9167 12.8333V23.8333ZM15.5 32.8333V29.5H8C7.27778 29.5 6.68056 29.2638 6.20833 28.7916C5.73611 28.3194 5.5 27.7222 5.5 27V9.66663C5.5 8.9444 5.73611 8.34718 6.20833 7.87496C6.68056 7.40274 7.27778 7.16663 8 7.16663H32C32.7222 7.16663 33.3194 7.40274 33.7917 7.87496C34.2639 8.34718 34.5 8.9444 34.5 9.66663V27C34.5 27.7222 34.2639 28.3194 33.7917 28.7916C33.3194 29.2638 32.7222 29.5 32 29.5H24.5V32.8333H15.5ZM8 28.3333H32C32.3333 28.3333 32.6389 28.1944 32.9167 27.9166C33.1944 27.6388 33.3333 27.3333 33.3333 27V9.66663C33.3333 9.33329 33.1944 9.02774 32.9167 8.74996C32.6389 8.47218 32.3333 8.33329 32 8.33329H8C7.66667 8.33329 7.36111 8.47218 7.08333 8.74996C6.80556 9.02774 6.66667 9.33329 6.66667 9.66663V27C6.66667 27.3333 6.80556 27.6388 7.08333 27.9166C7.36111 28.1944 7.66667 28.3333 8 28.3333Z" fill="url(#paint0_linear_1207_2856)"/>
</g>
<defs>
<linearGradient id="paint0_linear_1207_2856" x1="5.5" y1="20" x2="34.5" y2="20" gradientUnits="userSpaceOnUse">
<stop stop-color="#FF4747"/>
<stop offset="1" stop-color="#FFE27B"/>
</linearGradient>
</defs>
</svg>
