<svg width="40" height="40" viewBox="0 0 40 40" fill="none" xmlns="http://www.w3.org/2000/svg">
<g id="mark_email_read_24dp_E8EAED_FILL0_wght100_GRAD0_opsz24 1">
<path id="Vector" d="M25.5833 35.0833L20 29.5L20.8333 28.6666L25.5833 33.4166L35.0833 23.9166L35.9167 24.75L25.5833 35.0833ZM20 18.3333L32.6667 9.99998H7.33333L20 18.3333ZM20 19.75L6.66667 10.9166V28.6666C6.66667 29.0555 6.79167 29.375 7.04167 29.625C7.29167 29.875 7.61111 30 8 30H15.7917L16.9583 31.1666H8C7.27778 31.1666 6.68056 30.9305 6.20833 30.4583C5.73611 29.9861 5.5 29.3889 5.5 28.6666V11.3333C5.5 10.6111 5.73611 10.0139 6.20833 9.54165C6.68056 9.06942 7.27778 8.83331 8 8.83331H32C32.7222 8.83331 33.3194 9.06942 33.7917 9.54165C34.2639 10.0139 34.5 10.6111 34.5 11.3333V19.8333L33.3333 21V10.9166L20 19.75Z" fill="url(#paint0_linear_1207_2851)"/>
</g>
<defs>
<linearGradient id="paint0_linear_1207_2851" x1="5.5" y1="21.9583" x2="35.9167" y2="21.9583" gradientUnits="userSpaceOnUse">
<stop stop-color="#FF4747"/>
<stop offset="1" stop-color="#FFE27B"/>
</linearGradient>
</defs>
</svg>
