<svg width="36" height="36" viewBox="0 0 36 36" fill="none" xmlns="http://www.w3.org/2000/svg">
<g id="person_24dp_E8EAED_FILL0_wght100_GRAD0_opsz24 1">
<path id="Vector" d="M18 16.8002C16.8862 16.8002 15.9328 16.4037 15.1398 15.6107C14.3466 14.8174 13.95 13.8639 13.95 12.7502C13.95 11.6364 14.3466 10.6829 15.1398 9.88969C15.9328 9.09669 16.8862 8.7002 18 8.7002C19.1137 8.7002 20.0672 9.09669 20.8605 9.88969C21.6535 10.6829 22.05 11.6364 22.05 12.7502C22.05 13.8639 21.6535 14.8174 20.8605 15.6107C20.0672 16.4037 19.1137 16.8002 18 16.8002ZM7.94995 27.3002V25.3502C7.94995 24.8002 8.1187 24.2814 8.4562 23.7939C8.7937 23.3064 9.24995 22.9252 9.82495 22.6502C11.2 22.0002 12.5687 21.5127 13.9312 21.1877C15.2937 20.8627 16.65 20.7002 18 20.7002C19.35 20.7002 20.7062 20.8627 22.0687 21.1877C23.4312 21.5127 24.8 22.0002 26.175 22.6502C26.75 22.9252 27.2062 23.3064 27.5437 23.7939C27.8812 24.2814 28.05 24.8002 28.05 25.3502V27.3002H7.94995ZM8.99995 26.2502H27V25.3502C27 25.0002 26.8812 24.6689 26.6437 24.3564C26.4062 24.0439 26.075 23.7752 25.65 23.5502C24.45 22.9752 23.2038 22.5314 21.9116 22.2189C20.6196 21.9064 19.3157 21.7502 18 21.7502C16.6842 21.7502 15.3803 21.9064 14.0883 22.2189C12.7961 22.5314 11.55 22.9752 10.35 23.5502C9.92495 23.7752 9.5937 24.0439 9.3562 24.3564C9.1187 24.6689 8.99995 25.0002 8.99995 25.3502V26.2502ZM18 15.7502C18.825 15.7502 19.5312 15.4564 20.1187 14.8689C20.7062 14.2814 21 13.5752 21 12.7502C21 11.9252 20.7062 11.2189 20.1187 10.6314C19.5312 10.0439 18.825 9.7502 18 9.7502C17.175 9.7502 16.4687 10.0439 15.8812 10.6314C15.2937 11.2189 15 11.9252 15 12.7502C15 13.5752 15.2937 14.2814 15.8812 14.8689C16.4687 15.4564 17.175 15.7502 18 15.7502Z" fill="url(#paint0_linear_1207_3037)"/>
</g>
<defs>
<linearGradient id="paint0_linear_1207_3037" x1="7.94995" y1="18.0002" x2="28.05" y2="18.0002" gradientUnits="userSpaceOnUse">
<stop stop-color="#FF4747"/>
<stop offset="1" stop-color="#FFE27B"/>
</linearGradient>
</defs>
</svg>
